<svg id="svg" version="1.1" xmlns="http://www.w3.org/2000/svg" xmlns:xlink="http://www.w3.org/1999/xlink" width="400" height="368.75" viewBox="0, 0, 400,368.75"><g id="svgg"><path id="path0" d="M178.172 9.317 L 176.724 10.886 176.831 31.490 L 176.937 52.095 177.819 52.809 C 179.206 53.931,221.904 53.726,222.732 52.593 C 223.184 51.975,223.250 48.758,223.164 31.360 L 223.063 10.855 221.832 9.302 L 220.602 7.749 200.111 7.749 L 179.620 7.749 178.172 9.317 M131.856 55.443 C 129.774 57.765,129.889 56.453,129.889 77.733 C 129.889 88.617,130.039 97.762,130.225 98.251 C 131.121 100.609,130.576 100.554,153.035 100.554 L 173.414 100.554 174.437 99.531 L 175.461 98.508 175.576 77.452 C 175.677 58.739,175.625 56.297,175.106 55.504 L 174.522 54.613 153.561 54.613 L 132.601 54.613 131.856 55.443 M225.206 55.074 C 225.042 55.327,224.861 65.235,224.804 77.090 L 224.700 98.644 225.703 99.691 L 226.706 100.738 246.656 100.735 C 269.972 100.731,270.289 100.710,270.830 99.158 C 271.369 97.611,271.363 58.460,270.823 56.911 C 270.026 54.625,269.893 54.613,246.509 54.613 C 230.111 54.613,225.439 54.714,225.206 55.074 M23.063 173.674 C 18.364 174.789,18.810 170.044,18.811 218.902 C 18.811 266.213,18.704 264.194,21.233 264.643 C 23.029 264.962,60.909 265.024,62.801 264.711 C 64.714 264.395,64.589 267.501,64.590 220.052 C 64.590 172.880,64.738 175.773,62.257 174.448 C 60.770 173.653,26.038 172.967,23.063 173.674 M340.324 173.918 C 336.760 174.915,336.905 173.172,336.957 214.391 C 337.019 264.511,337.010 263.724,337.564 264.280 C 338.208 264.925,378.929 265.188,380.112 264.555 C 381.998 263.546,381.949 264.759,381.949 219.154 C 381.949 172.401,382.093 175.325,379.736 174.110 C 378.424 173.434,342.677 173.260,340.324 173.918 M66.513 266.474 C 65.657 267.333,65.863 310.785,66.726 311.566 C 67.814 312.550,111.242 312.497,111.770 311.511 C 112.507 310.133,112.092 267.654,111.334 266.895 C 110.480 266.041,67.349 265.636,66.513 266.474 M291.463 266.601 C 290.040 267.386,290.060 267.072,290.018 290.047 C 289.983 309.895,290.021 311.253,290.633 311.700 C 291.437 312.288,332.193 312.405,333.722 311.824 C 335.851 311.014,335.841 311.129,335.805 288.083 C 335.784 274.270,335.642 266.860,335.396 266.613 C 334.734 265.951,292.662 265.940,291.463 266.601 M113.100 314.114 C 112.782 315.441,113.073 357.316,113.405 357.989 C 113.902 359.001,114.552 359.030,136.611 359.036 L 157.908 359.041 158.349 358.215 C 159.368 356.312,159.078 314.851,158.039 313.811 C 157.594 313.366,154.076 313.284,135.405 313.284 L 113.298 313.284 113.100 314.114 M243.559 313.930 C 241.678 314.882,241.663 315.080,241.777 336.630 C 241.893 358.434,241.832 357.895,244.269 358.624 C 246.229 359.212,285.206 359.208,286.496 358.621 C 288.138 357.872,288.192 357.129,288.192 335.013 C 288.192 314.663,288.171 314.037,287.478 313.666 C 286.080 312.918,245.073 313.165,243.559 313.930 " stroke="none" fill="#12a2e4" fill-rule="evenodd"></path><path id="path1" d="M131.550 198.195 C 130.824 198.548,130.813 198.883,130.885 219.111 C 130.963 240.883,131.023 242.225,131.947 242.580 C 133.708 243.255,174.143 242.806,174.517 242.107 C 174.753 241.666,174.927 233.525,174.991 219.984 L 175.092 198.558 174.245 198.172 C 173.129 197.664,132.597 197.686,131.550 198.195 M225.889 198.111 C 225.243 198.521,225.246 241.547,225.892 242.325 C 226.423 242.966,270.292 243.038,270.687 242.399 C 271.020 241.859,271.029 198.745,270.695 198.206 C 270.383 197.700,226.683 197.608,225.889 198.111 " stroke="none" fill="#45358d" fill-rule="evenodd"></path><path id="path2" d="M0.000 184.502 L 0.000 369.004 200.000 369.004 L 400.000 369.004 400.000 184.502 L 400.000 0.000 200.000 0.000 L 0.000 0.000 0.000 184.502 M223.088 6.075 C 225.501 7.084,225.473 6.810,225.564 30.302 C 225.643 50.663,225.669 51.368,226.362 51.875 C 226.961 52.313,230.619 52.399,248.758 52.399 L 270.439 52.399 271.474 53.289 L 272.509 54.179 272.620 76.444 C 272.740 100.630,272.699 101.504,271.389 102.814 L 270.513 103.690 248.264 103.684 L 226.015 103.678 224.577 102.854 C 221.666 101.184,221.771 102.101,221.771 78.520 L 221.771 57.582 220.882 56.999 C 219.445 56.058,180.400 56.342,179.441 57.301 C 178.829 57.913,178.769 59.436,178.598 78.887 C 178.388 102.646,178.520 101.637,175.448 102.996 C 173.894 103.683,172.939 103.709,152.303 103.609 C 128.393 103.494,129.570 103.621,128.144 101.011 C 127.145 99.182,127.138 56.180,128.137 54.353 C 129.182 52.442,129.676 52.403,152.446 52.401 C 171.425 52.399,173.388 52.343,173.848 51.789 C 174.260 51.293,174.389 47.128,174.539 29.502 C 174.742 5.674,174.624 6.831,176.937 5.884 C 178.388 5.290,221.638 5.469,223.088 6.075 M65.400 172.294 L 66.605 173.371 66.796 217.774 C 66.901 242.196,67.026 262.205,67.073 262.240 C 68.543 263.313,71.096 263.438,90.609 263.389 L 110.554 263.338 111.775 264.234 C 113.861 265.763,113.821 265.328,113.920 287.823 C 114.017 309.923,114.059 310.453,115.764 311.101 C 116.264 311.291,125.755 311.439,137.457 311.439 L 158.261 311.439 159.297 312.330 L 160.332 313.220 160.444 335.300 C 160.564 359.068,160.518 359.752,158.757 360.481 C 158.023 360.785,151.551 360.875,135.522 360.802 L 113.304 360.701 112.464 359.861 L 111.624 359.021 111.439 337.093 C 111.294 319.794,111.153 315.064,110.775 314.686 C 110.395 314.306,105.886 314.189,89.004 314.122 C 64.972 314.027,65.673 314.076,64.398 312.404 L 63.469 311.185 63.469 291.084 C 63.469 268.138,63.400 267.436,61.101 267.004 C 60.411 266.875,50.801 266.788,39.747 266.812 C 18.111 266.859,18.555 266.895,16.789 264.944 C 15.903 263.966,15.538 237.011,15.867 196.800 L 16.052 174.228 16.974 173.229 C 18.839 171.210,18.366 171.248,42.153 171.232 L 64.195 171.218 65.400 172.294 M382.015 171.607 C 384.900 172.409,384.674 168.601,384.786 218.291 C 384.864 253.343,384.787 262.929,384.417 264.063 C 383.500 266.871,384.085 266.802,360.217 266.894 C 348.644 266.938,339.037 267.112,338.868 267.281 C 338.699 267.450,338.478 277.496,338.376 289.606 C 338.239 306.054,338.077 311.824,337.738 312.415 C 336.860 313.948,335.843 314.021,314.982 314.043 C 304.002 314.055,294.354 314.182,293.542 314.326 C 291.164 314.746,291.188 314.511,291.165 337.529 C 291.150 351.630,291.018 358.176,290.734 358.798 C 289.869 360.698,289.928 360.693,267.343 360.817 C 243.915 360.946,242.144 360.865,240.667 359.595 L 239.668 358.735 239.696 336.174 L 239.724 313.614 240.719 312.619 L 241.714 311.624 263.992 311.513 L 286.270 311.402 286.538 310.590 C 286.685 310.144,286.866 300.231,286.941 288.561 C 287.094 264.764,286.978 265.754,289.759 264.345 L 291.587 263.418 311.015 263.425 C 321.700 263.429,330.988 263.338,331.655 263.222 C 334.080 262.803,333.947 265.369,333.957 218.561 C 333.967 170.349,333.791 172.950,337.123 171.763 C 338.938 171.116,379.736 170.974,382.015 171.607 M174.723 196.302 C 176.367 196.568,177.151 196.905,177.768 197.612 L 178.598 198.565 178.561 220.039 C 178.521 243.137,178.536 242.911,176.994 244.063 C 175.971 244.826,175.719 244.834,152.708 244.834 L 129.456 244.834 128.566 243.799 L 127.675 242.763 127.675 220.332 C 127.675 194.786,127.406 196.774,130.927 196.281 C 133.728 195.890,172.280 195.908,174.723 196.302 M271.988 196.997 C 272.666 197.833,272.694 198.768,272.694 220.537 L 272.694 243.207 271.788 244.113 L 270.882 245.018 248.264 245.010 C 222.460 245.001,222.964 245.056,222.168 242.188 C 221.401 239.425,221.643 198.764,222.432 197.789 C 223.828 196.066,225.181 195.977,249.018 196.054 L 271.283 196.125 271.988 196.997 " stroke="none" fill="#fbfbfc" fill-rule="evenodd"></path><path id="path3" d="M268.992 55.182 C 269.696 55.495,270.409 55.952,270.576 56.197 C 270.766 56.474,270.840 56.293,270.772 55.720 C 270.679 54.926,270.458 54.784,269.188 54.704 L 267.712 54.612 268.992 55.182 M19.803 173.309 C 18.918 174.194,19.586 174.858,20.837 174.335 C 21.541 174.041,22.495 173.781,22.959 173.757 C 23.653 173.721,23.607 173.664,22.694 173.432 C 21.216 173.056,20.104 173.008,19.803 173.309 M59.410 173.432 C 58.984 173.707,59.112 173.792,59.963 173.800 C 60.572 173.805,61.776 174.213,62.638 174.706 L 64.207 175.603 64.207 174.568 C 64.207 173.615,64.069 173.513,62.495 173.297 C 60.285 172.995,60.072 173.004,59.410 173.432 M338.492 173.708 C 338.366 174.064,338.173 174.520,338.064 174.723 C 337.955 174.926,338.105 174.900,338.398 174.664 C 338.690 174.428,339.594 174.108,340.406 173.951 C 341.761 173.690,341.807 173.645,340.959 173.402 C 339.398 172.953,338.732 173.036,338.492 173.708 M377.491 173.407 C 376.662 173.651,376.718 173.697,378.044 173.864 C 378.856 173.967,379.811 174.178,380.166 174.334 C 380.620 174.534,380.812 174.453,380.812 174.064 C 380.812 173.125,379.402 172.846,377.491 173.407 M130.443 196.940 C 128.307 197.473,128.413 196.252,128.413 220.312 C 128.413 241.462,128.442 242.389,129.119 243.225 L 129.824 244.096 151.720 244.206 C 175.042 244.323,175.453 244.305,176.688 243.154 L 177.491 242.407 177.491 220.289 L 177.491 198.172 176.493 197.518 C 175.520 196.880,132.830 196.345,130.443 196.940 M224.317 197.524 L 223.063 198.369 222.967 219.509 C 222.865 242.169,222.896 242.635,224.567 243.611 C 225.766 244.311,269.802 244.715,270.954 244.036 C 272.281 243.255,272.325 242.489,272.325 220.135 C 272.325 198.647,272.308 198.138,271.587 197.417 C 270.865 196.695,270.357 196.679,248.210 196.679 L 225.570 196.679 224.317 197.524 M174.245 198.172 L 175.092 198.558 174.991 219.984 C 174.927 233.525,174.753 241.666,174.517 242.107 C 174.143 242.806,133.708 243.255,131.947 242.580 C 131.023 242.225,130.963 240.883,130.885 219.111 C 130.813 198.883,130.824 198.548,131.550 198.195 C 132.597 197.686,173.129 197.664,174.245 198.172 M270.695 198.206 C 271.029 198.745,271.020 241.859,270.687 242.399 C 270.292 243.038,226.423 242.966,225.892 242.325 C 225.246 241.547,225.243 198.521,225.889 198.111 C 226.683 197.608,270.383 197.700,270.695 198.206 M335.168 310.356 L 334.359 311.845 335.168 311.596 C 336.252 311.263,336.231 311.299,336.096 310.004 L 335.978 308.867 335.168 310.356 M241.771 313.727 C 241.528 313.970,241.328 314.751,241.328 315.461 C 241.328 316.795,241.883 316.693,242.124 315.314 C 242.195 314.908,242.834 314.285,243.544 313.930 L 244.834 313.285 243.524 313.285 C 242.804 313.284,242.015 313.483,241.771 313.727 M241.328 356.753 C 241.328 358.550,241.857 359.050,243.708 359.003 L 245.203 358.965 244.044 358.592 C 242.939 358.236,242.066 357.042,242.066 355.887 C 242.066 355.592,241.900 355.351,241.697 355.351 C 241.494 355.351,241.328 355.982,241.328 356.753 M287.846 356.892 C 287.833 357.233,287.540 357.795,287.194 358.140 C 286.602 358.732,286.618 358.753,287.471 358.490 C 288.658 358.124,288.630 358.174,288.223 357.157 C 287.985 356.560,287.862 356.474,287.846 356.892 " stroke="none" fill="#948cb6" fill-rule="evenodd"></path><path id="path4" d="M176.937 5.884 C 174.624 6.831,174.742 5.674,174.539 29.502 C 174.389 47.128,174.260 51.293,173.848 51.789 C 173.388 52.343,171.425 52.399,152.446 52.401 C 129.676 52.403,129.182 52.442,128.137 54.353 C 127.138 56.180,127.145 99.182,128.144 101.011 C 129.570 103.621,128.393 103.494,152.303 103.609 C 172.939 103.709,173.894 103.683,175.448 102.996 C 178.520 101.637,178.388 102.646,178.598 78.887 C 178.769 59.436,178.829 57.913,179.441 57.301 C 180.400 56.342,219.445 56.058,220.882 56.999 L 221.771 57.582 221.771 78.520 C 221.771 102.101,221.666 101.184,224.577 102.854 L 226.015 103.678 248.264 103.684 L 270.513 103.690 271.389 102.814 C 272.699 101.504,272.740 100.630,272.620 76.444 L 272.509 54.179 271.474 53.289 L 270.439 52.399 248.758 52.399 C 230.619 52.399,226.961 52.313,226.362 51.875 C 225.669 51.368,225.643 50.663,225.564 30.302 C 225.473 6.810,225.501 7.084,223.088 6.075 C 221.638 5.469,178.388 5.290,176.937 5.884 M221.832 9.302 L 223.063 10.855 223.164 31.360 C 223.250 48.758,223.184 51.975,222.732 52.593 C 221.904 53.726,179.206 53.931,177.819 52.809 L 176.937 52.095 176.831 31.490 L 176.724 10.886 178.172 9.317 L 179.620 7.749 200.111 7.749 L 220.602 7.749 221.832 9.302 M175.106 55.504 C 175.625 56.297,175.677 58.739,175.576 77.452 L 175.461 98.508 174.437 99.531 L 173.414 100.554 153.035 100.554 C 130.576 100.554,131.121 100.609,130.225 98.251 C 130.039 97.762,129.889 88.624,129.889 77.751 L 129.889 58.133 131.089 56.374 L 132.288 54.614 153.405 54.613 L 174.522 54.613 175.106 55.504 M270.735 55.074 C 271.333 55.999,271.307 98.998,270.708 99.819 C 270.184 100.536,269.649 100.556,248.456 100.665 L 226.742 100.776 225.721 99.710 L 224.700 98.644 224.804 77.090 C 224.861 65.235,225.042 55.327,225.206 55.074 C 225.440 54.713,230.403 54.613,247.970 54.613 C 265.538 54.613,270.501 54.713,270.735 55.074 M19.004 171.739 C 18.395 172.009,17.482 172.680,16.974 173.229 L 16.052 174.228 15.867 196.800 C 15.538 237.011,15.903 263.966,16.789 264.944 C 18.555 266.895,18.111 266.859,39.747 266.812 C 50.801 266.788,60.411 266.875,61.101 267.004 C 63.400 267.436,63.469 268.138,63.469 291.084 L 63.469 311.185 64.398 312.404 C 65.673 314.076,64.972 314.027,89.004 314.122 C 105.886 314.189,110.395 314.306,110.775 314.686 C 111.153 315.064,111.294 319.794,111.439 337.093 L 111.624 359.021 112.464 359.861 L 113.304 360.701 135.522 360.802 C 151.551 360.875,158.023 360.785,158.757 360.481 C 160.518 359.752,160.564 359.068,160.444 335.300 L 160.332 313.220 159.297 312.330 L 158.261 311.439 137.457 311.439 C 125.755 311.439,116.264 311.291,115.764 311.101 C 114.059 310.453,114.017 309.923,113.920 287.823 C 113.821 265.328,113.861 265.763,111.775 264.234 L 110.554 263.338 90.609 263.389 C 71.096 263.438,68.543 263.313,67.073 262.240 C 67.026 262.205,66.901 242.196,66.796 217.774 L 66.605 173.371 65.400 172.294 L 64.195 171.218 42.153 171.232 C 24.608 171.244,19.885 171.347,19.004 171.739 M337.123 171.763 C 333.791 172.950,333.967 170.349,333.957 218.561 C 333.947 265.369,334.080 262.803,331.655 263.222 C 330.988 263.338,321.700 263.429,311.015 263.425 L 291.587 263.418 289.759 264.345 C 286.978 265.754,287.094 264.764,286.941 288.561 C 286.866 300.231,286.685 310.144,286.538 310.590 L 286.270 311.402 263.992 311.513 L 241.714 311.624 240.719 312.619 L 239.724 313.614 239.696 336.174 L 239.668 358.735 240.667 359.595 C 242.144 360.865,243.915 360.946,267.343 360.817 C 289.928 360.693,289.869 360.698,290.734 358.798 C 291.018 358.176,291.150 351.630,291.165 337.529 C 291.188 314.511,291.164 314.746,293.542 314.326 C 294.354 314.182,304.002 314.055,314.982 314.043 C 335.843 314.021,336.860 313.948,337.738 312.415 C 338.077 311.824,338.239 306.054,338.376 289.606 C 338.478 277.496,338.699 267.450,338.868 267.281 C 339.037 267.112,348.644 266.938,360.217 266.894 C 384.085 266.802,383.500 266.871,384.417 264.063 C 384.787 262.929,384.864 253.343,384.786 218.291 C 384.674 168.601,384.900 172.409,382.015 171.607 C 379.736 170.974,338.938 171.116,337.123 171.763 M64.155 173.626 C 64.833 174.303,64.763 263.774,64.084 264.453 C 63.682 264.855,23.858 265.064,21.546 264.677 C 19.836 264.390,19.753 264.318,19.291 262.724 C 18.679 260.615,18.576 177.159,19.184 176.023 C 19.389 175.639,19.557 174.927,19.557 174.440 C 19.557 173.953,19.626 173.486,19.711 173.401 C 19.964 173.148,63.900 173.371,64.155 173.626 M380.351 173.421 C 380.604 173.427,380.812 173.770,380.812 174.183 C 380.812 174.596,381.068 175.324,381.380 175.801 C 381.884 176.570,381.949 181.508,381.949 219.122 C 381.949 264.762,381.998 263.546,380.112 264.555 C 378.929 265.188,338.208 264.925,337.564 264.280 C 337.013 263.727,337.027 264.828,336.943 214.760 C 336.884 179.400,336.944 177.213,338.041 174.734 L 338.698 173.247 359.294 173.329 C 370.621 173.374,380.097 173.415,380.351 173.421 M130.927 196.281 C 127.406 196.774,127.675 194.786,127.675 220.332 L 127.675 242.763 128.566 243.799 L 129.456 244.834 152.708 244.834 C 175.719 244.834,175.971 244.826,176.994 244.063 C 178.536 242.911,178.521 243.137,178.561 220.039 L 178.598 198.565 177.768 197.612 C 177.151 196.905,176.367 196.568,174.723 196.302 C 172.280 195.908,133.728 195.890,130.927 196.281 M224.923 196.478 C 221.546 197.392,221.771 195.737,221.773 219.690 C 221.776 243.435,221.757 243.237,224.103 244.302 C 225.564 244.965,226.848 245.003,248.264 245.010 L 270.882 245.018 271.788 244.113 L 272.694 243.207 272.694 220.537 C 272.694 198.768,272.666 197.833,271.988 196.997 L 271.283 196.125 249.018 196.054 C 231.365 195.997,226.374 196.085,224.923 196.478 M176.493 197.518 L 177.491 198.172 177.491 220.289 L 177.491 242.407 176.688 243.154 C 175.453 244.305,175.042 244.323,151.720 244.206 L 129.824 244.096 129.119 243.225 C 128.069 241.928,128.012 198.625,129.059 197.697 C 130.115 196.761,130.301 196.754,153.338 196.810 C 173.874 196.860,175.567 196.911,176.493 197.518 M271.587 197.417 C 272.308 198.138,272.325 198.647,272.325 220.135 C 272.325 242.489,272.281 243.255,270.954 244.036 C 269.802 244.715,225.766 244.311,224.567 243.611 C 222.896 242.635,222.865 242.169,222.967 219.509 L 223.063 198.369 224.317 197.524 L 225.570 196.679 248.210 196.679 C 270.357 196.679,270.865 196.695,271.587 197.417 M111.334 266.895 C 112.092 267.654,112.507 310.133,111.770 311.511 C 111.298 312.392,67.851 312.539,66.697 311.663 C 65.859 311.027,65.681 267.309,66.513 266.474 C 67.349 265.636,110.480 266.041,111.334 266.895 M335.381 266.605 C 335.607 266.835,335.787 275.336,335.860 289.196 L 335.978 311.418 334.207 311.797 C 331.405 312.398,291.465 312.309,290.633 311.700 C 290.021 311.253,289.983 309.895,290.018 290.047 C 290.060 267.072,290.040 267.386,291.463 266.601 C 292.650 265.947,334.739 265.951,335.381 266.605 M158.347 313.892 C 159.090 314.787,159.085 357.544,158.342 358.440 C 157.679 359.238,113.913 359.374,113.398 358.579 C 113.067 358.067,112.778 315.432,113.097 314.114 L 113.298 313.284 135.571 313.284 C 155.800 313.284,157.889 313.340,158.347 313.892 M287.563 313.745 C 288.129 314.167,288.191 316.110,288.279 336.224 L 288.376 358.241 287.042 358.641 C 285.234 359.182,242.209 359.201,241.875 358.660 C 241.573 358.171,241.580 314.142,241.882 313.653 C 242.246 313.065,286.771 313.155,287.563 313.745 " stroke="none" fill="#95d4ec" fill-rule="evenodd"></path></g></svg>